{"title":"1947 Earth  HINDI DVD-RIP XVID - BEST","uid":7122649,"size":836764236,"categoryP":"video","categoryS":"movies","magnet":"?xt=urn:btih:fed52eae423fd24e9cfbe96c42214c57b0d0f20b&amp;dn=1947+Earth++HINDI+DVD-RIP+XVID+-+BEST&amp;tr=udp%3A%2F%2Ftracker.openbittorrent.com%3A80&amp;tr=udp%3A%2F%2Fopen.demonii.com%3A1337&amp;tr=udp%3A%2F%2Ftracker.coppersurfer.tk%3A6969&amp;tr=udp%3A%2F%2Fexodus.desync.com%3A6969","seeders":0,"leechers":2,"uploader":"BossRavi","files":2,"time":1332415732,"description":"1947 Earth  HINDI DVD-RIP XVID - BEST\n\n\nStoryline\n\nThe movie opens in Lahore of 1947 before India and Pakistan became independent. It is a cosmopolitan city, depicted by the coterie of working class friends who are from different religions. The rest of the movie chronicles the fate of this group and the maddening religious that sweeps even this city as the partition of the two countries is decided and Lahore is given to Pakistan.\n\n\nGenres:\nDrama | Romance | War \n\n\nCountry:\nIndia | Canada\n\n\nLanguage:\nHindi | English | Parsee | Punjabi | Urdu \n\n\nDirected By : Deepa Mehta\n\nProduced By : Anne Masson, Deepa Mehta\n\nMusic Director : A R Rahman\n\nCast : Aamir Khan, Nandita Das, Rahul Khanna, Maia Sethna, Shabana Azmi, Kitu Gidwani, Arif Zakaria, Kulbhushan Kharbanda, Rajendra Kumar, Pavan Malhotra\n\nBanner : Cracking the Earth Films Inc\n\nWriters : Deepa Mehta\n\n\nFormat                           : AVI\nFormat/Info                      : Audio Video Interleave\nFormat profile                   : OpenDML\nOverall bit rate                 : 1 800 Kbps\nWriting application              : VirtualDubMod 1.5.10.2 (build 2542/release)\nWriting library                  : VirtualDubMod build 2542/release\n\n\nVideo\nID                               : 0\nFormat                           : MPEG-4 Visual\nFormat profile                   : AdvancedSimple@L5\nFormat settings, BVOP            : Yes\nFormat settings, QPel            : No\nFormat settings, GMC             : No warppoints\nFormat settings, Matrix          : Default (MPEG)\nCodec ID                         : XVID\nCodec ID/Hint                    : XviD\nBit rate                         : 1 411 Kbps\nWidth                            : 640 pixels\nHeight                           : 272 pixels\nDisplay aspect ratio             : 2.35:1\nFrame rate                       : 23.976 fps\nResolution                       : 24 bits\nColorimetry                      : 4:2:0\nScan type                        : Progressive\nBits/(Pixel*Frame)               : 0.338\nStream size                      : 1.03 GiB (78%)\nWriting library                  : XviD 64\n\nAudio\nID                               : 1\nFormat                           : AC-3\nFormat/Info                      : Audio Coding 3\nCodec ID                         : 2000\nBit rate mode                    : Constant\nBit rate                         : 384 Kbps\nChannel(s)                       : 6 channels\nChannel positions                : Front: L C R, Surround: L R, LFE\nSampling rate                    : 48.0 KHz\nStream size                      : 287 MiB (21%)\nAlignment                        : Aligned on interleaves\nInterleave, duration             : 64 ms (1.53 video frames)\nInterleave, preload duration     : 192 ms","torrent":{"xt":"urn:btih:fed52eae423fd24e9cfbe96c42214c57b0d0f20b","amp;dn":"1947+Earth++HINDI+DVD-RIP+XVID+-+BEST","amp;tr":["udp%3A%2F%2Ftracker.openbittorrent.com%3A80","udp%3A%2F%2Fopen.demonii.com%3A1337","udp%3A%2F%2Ftracker.coppersurfer.tk%3A6969","udp%3A%2F%2Fexodus.desync.com%3A6969"],"infoHash":"fed52eae423fd24e9cfbe96c42214c57b0d0f20b","infoHashBuffer":{"type":"Buffer","data":[254,213,46,174,66,63,210,78,156,251,233,108,66,33,76,87,176,208,242,11]},"announce":[],"urlList":[]}}